<?xml version="1.0" standalone="yes"?><svg width="1920px" height="1080px" xmlns="http://www.w3.org/2000/svg" version="1.1"><polygon points="0,298 0,397 78,396" fill="rgb(74, 71, 71)" /><polygon points="0,894 0,993 102,912" fill="rgb(112, 110, 110)" /><polygon points="0,0 0,99 99,0" fill="rgb(64, 63, 63)" /><polygon points="0,993 0,1080 99,1080" fill="rgb(70, 66, 66)" /><polygon points="0,397 0,496 78,396" fill="rgb(78, 78, 78)" /><polygon points="78,396 0,496 132,426" fill="rgb(129, 123, 123)" /><polygon points="0,695 0,795 132,762" fill="rgb(58, 58, 58)" /><polygon points="0,795 102,912 132,762" fill="rgb(108, 106, 106)" /><polygon points="0,99 0,198 132,192" fill="rgb(65, 63, 63)" /><polygon points="99,0 0,99 132,192" fill="rgb(106, 105, 105)" /><polygon points="0,198 0,298 132,192" fill="rgb(72, 71, 71)" /><polygon points="0,795 0,894 102,912" fill="rgb(71, 70, 70)" /><polygon points="0,993 99,1080 102,912" fill="rgb(84, 81, 81)" /><polygon points="99,0 132,192 198,0" fill="rgb(122, 121, 121)" /><polygon points="102,912 99,1080 198,1080" fill="rgb(84, 83, 83)" /><polygon points="0,496 0,596 132,426" fill="rgb(59, 58, 58)" /><polygon points="0,596 0,695 132,762" fill="rgb(62, 62, 62)" /><polygon points="0,298 78,396 132,192" fill="rgb(102, 99, 99)" /><polygon points="102,912 198,1080 270,996" fill="rgb(86, 84, 84)" /><polygon points="198,0 132,192 258,186" fill="rgb(157, 153, 153)" /><polygon points="132,192 78,396 132,426" fill="rgb(87, 86, 86)" /><polygon points="270,996 198,1080 298,1080" fill="rgb(62, 58, 58)" /><polygon points="198,0 258,186 298,0" fill="rgb(56, 54, 54)" /><polygon points="132,762 102,912 270,996" fill="rgb(113, 108, 108)" /><polygon points="132,192 132,426 258,186" fill="rgb(74, 72, 72)" /><polygon points="0,596 132,762 132,426" fill="rgb(49, 49, 49)" /><polygon points="270,996 298,1080 384,1008" fill="rgb(71, 71, 71)" /><polygon points="384,1008 298,1080 397,1080" fill="rgb(63, 63, 63)" /><polygon points="298,0 258,186 397,0" fill="rgb(59, 58, 58)" /><polygon points="384,1008 397,1080 486,1032" fill="rgb(58, 58, 58)" /><polygon points="258,186 132,426 498,324" fill="rgb(46, 46, 46)" /><polygon points="486,1032 397,1080 496,1080" fill="rgb(69, 65, 65)" /><polygon points="132,762 270,996 384,1008" fill="rgb(57, 57, 57)" /><polygon points="486,1032 496,1080 596,1080" fill="rgb(74, 72, 72)" /><polygon points="397,0 258,186 498,324" fill="rgb(44, 44, 44)" /><polygon points="496,0 397,0 498,324" fill="rgb(51, 49, 49)" /><polygon points="132,426 132,762 498,324" fill="rgb(50, 49, 49)" /><polygon points="496,0 498,324 596,0" fill="rgb(65, 65, 65)" /><polygon points="384,1008 486,1032 804,540" fill="rgb(70, 66, 66)" /><polygon points="498,324 384,1008 804,540" fill="rgb(53, 53, 53)" /><polygon points="596,0 498,324 695,0" fill="rgb(50, 50, 50)" /><polygon points="132,762 384,1008 498,324" fill="rgb(39, 39, 39)" /><polygon points="486,1032 695,1080 804,540" fill="rgb(80, 77, 77)" /><polygon points="486,1032 596,1080 695,1080" fill="rgb(76, 74, 74)" /><polygon points="795,1080 894,1080 954,936" fill="rgb(50, 50, 50)" /><polygon points="695,1080 795,1080 954,936" fill="rgb(49, 46, 46)" /><polygon points="804,540 695,1080 954,936" fill="rgb(54, 54, 54)" /><polygon points="954,936 894,1080 993,1080" fill="rgb(65, 63, 63)" /><polygon points="695,0 498,324 795,0" fill="rgb(42, 42, 42)" /><polygon points="954,936 993,1080 1026,1038" fill="rgb(86, 86, 86)" /><polygon points="954,936 1026,1038 1032,936" fill="rgb(187, 187, 187)" /><polygon points="795,0 498,324 804,540" fill="rgb(129, 129, 129)" /><polygon points="1032,936 1026,1038 1093,1080" fill="rgb(63, 63, 63)" /><polygon points="1026,1038 993,1080 1093,1080" fill="rgb(51, 51, 51)" /><polygon points="795,0 804,540 894,0" fill="rgb(57, 56, 56)" /><polygon points="804,540 954,936 1092,510" fill="rgb(49, 49, 49)" /><polygon points="954,936 1032,936 1092,510" fill="rgb(50, 50, 50)" /><polygon points="894,0 804,540 1092,510" fill="rgb(44, 44, 44)" /><polygon points="993,0 894,0 1092,510" fill="rgb(41, 39, 39)" /><polygon points="1092,510 1032,936 1224,654" fill="rgb(44, 44, 44)" /><polygon points="1032,936 1093,1080 1192,1080" fill="rgb(47, 47, 47)" /><polygon points="993,0 1092,510 1093,0" fill="rgb(57, 56, 56)" /><polygon points="1092,510 1224,654 1356,432" fill="rgb(139, 129, 129)" /><polygon points="1291,0 1192,0 1398,138" fill="rgb(54, 54, 54)" /><polygon points="1093,0 1092,510 1192,0" fill="rgb(84, 84, 84)" /><polygon points="1398,138 1192,0 1404,204" fill="rgb(53, 51, 51)" /><polygon points="1192,0 1092,510 1404,204" fill="rgb(72, 71, 71)" /><polygon points="1092,510 1356,432 1404,204" fill="rgb(44, 44, 44)" /><polygon points="1356,432 1224,654 1416,528" fill="rgb(94, 94, 94)" /><polygon points="1398,462 1356,432 1416,528" fill="rgb(94, 94, 94)" /><polygon points="1391,0 1291,0 1398,138" fill="rgb(59, 58, 58)" /><polygon points="1224,654 1192,1080 1291,1080" fill="rgb(41, 39, 39)" /><polygon points="1032,936 1192,1080 1224,654" fill="rgb(53, 51, 51)" /><polygon points="1391,0 1398,138 1490,0" fill="rgb(58, 57, 57)" /><polygon points="1224,654 1291,1080 1391,1080" fill="rgb(44, 42, 42)" /><polygon points="1356,432 1398,462 1404,204" fill="rgb(44, 44, 44)" /><polygon points="1490,1080 1590,1080 1620,990" fill="rgb(59, 59, 59)" /><polygon points="1224,654 1391,1080 1638,804" fill="rgb(74, 71, 71)" /><polygon points="1391,1080 1490,1080 1638,804" fill="rgb(58, 58, 58)" /><polygon points="1490,1080 1620,990 1638,804" fill="rgb(72, 70, 70)" /><polygon points="1416,528 1224,654 1638,804" fill="rgb(50, 47, 47)" /><polygon points="1578,582 1416,528 1638,804" fill="rgb(90, 84, 84)" /><polygon points="1490,0 1398,138 1590,0" fill="rgb(56, 56, 56)" /><polygon points="1398,462 1416,528 1578,582" fill="rgb(50, 50, 50)" /><polygon points="1620,990 1590,1080 1689,1080" fill="rgb(69, 69, 69)" /><polygon points="1398,138 1404,204 1590,0" fill="rgb(54, 53, 53)" /><polygon points="1590,0 1404,204 1734,72" fill="rgb(63, 63, 63)" /><polygon points="1689,0 1590,0 1734,72" fill="rgb(65, 64, 64)" /><polygon points="1689,0 1734,72 1788,0" fill="rgb(63, 62, 62)" /><polygon points="1578,582 1638,804 1794,630" fill="rgb(59, 58, 58)" /><polygon points="1788,0 1734,72 1806,18" fill="rgb(72, 72, 72)" /><polygon points="1620,990 1689,1080 1788,1080" fill="rgb(57, 57, 57)" /><polygon points="1404,204 1398,462 1578,582" fill="rgb(50, 50, 50)" /><polygon points="1794,630 1638,804 1884,750" fill="rgb(62, 62, 62)" /><polygon points="1788,0 1806,18 1848,24" fill="rgb(71, 66, 66)" /><polygon points="1788,0 1866,18 1888,0" fill="rgb(69, 69, 69)" /><polygon points="1788,0 1848,24 1866,18" fill="rgb(70, 69, 69)" /><polygon points="1806,18 1734,72 1848,24" fill="rgb(69, 65, 65)" /><polygon points="1404,204 1578,582 1734,72" fill="rgb(49, 49, 49)" /><polygon points="1734,72 1578,582 1920,298" fill="rgb(156, 153, 153)" /><polygon points="1920,496 1794,630 1920,596" fill="rgb(64, 64, 64)" /><polygon points="1920,298 1578,582 1920,397" fill="rgb(83, 81, 81)" /><polygon points="1794,630 1920,496 1920,397" fill="rgb(58, 57, 57)" /><polygon points="1578,582 1794,630 1920,397" fill="rgb(64, 64, 64)" /><polygon points="1902,756 1884,750 1920,795" fill="rgb(59, 58, 58)" /><polygon points="1848,24 1734,72 1920,99" fill="rgb(70, 70, 70)" /><polygon points="1866,18 1848,24 1920,99" fill="rgb(65, 65, 65)" /><polygon points="1620,990 1788,1080 1920,894" fill="rgb(86, 84, 84)" /><polygon points="1638,804 1620,990 1920,894" fill="rgb(71, 71, 71)" /><polygon points="1920,795 1884,750 1920,894" fill="rgb(63, 62, 62)" /><polygon points="1884,750 1638,804 1920,894" fill="rgb(78, 76, 76)" /><polygon points="1866,18 1920,99 1920,0" fill="rgb(65, 64, 64)" /><polygon points="1888,0 1866,18 1920,0" fill="rgb(59, 58, 58)" /><polygon points="1920,894 1788,1080 1920,993" fill="rgb(59, 59, 59)" /><polygon points="1788,1080 1888,1080 1920,993" fill="rgb(64, 64, 64)" /><polygon points="1920,99 1734,72 1920,198" fill="rgb(70, 69, 69)" /><polygon points="1734,72 1920,298 1920,198" fill="rgb(74, 71, 71)" /><polygon points="1920,993 1888,1080 1920,1080" fill="rgb(59, 58, 58)" /><polygon points="1884,750 1902,756 1920,695" fill="rgb(53, 53, 53)" /><polygon points="1920,596 1794,630 1920,695" fill="rgb(59, 58, 58)" /><polygon points="1794,630 1884,750 1920,695" fill="rgb(56, 56, 56)" /><polygon points="1902,756 1920,795 1920,695" fill="rgb(54, 54, 54)" /></svg>